<?xml version="1.0" encoding="UTF-8" standalone="no"?>
<svg
        version="1.1"
        viewBox="0.0 0.0 1280.0 720.0"
        fill="none"
        stroke="none"
        stroke-linecap="square"
        stroke-miterlimit="10"
        id="svg20"
        xmlns="http://www.w3.org/2000/svg"
        xmlns:svg="http://www.w3.org/2000/svg">
    <defs
            id="defs20" />
    <clipPath
            id="g333c1216808_0_112.0">
        <path
                d="m0 0l1280.0 0l0 720.0l-1280.0 0l0 -720.0z"
                clip-rule="nonzero"
                id="path1" />
    </clipPath>
    <g
            clip-path="url(#g333c1216808_0_112.0)"
            id="g20"
            transform="matrix(0.8342803,0,0,0.81481481,246.06061,156.36363)">
        <path
                fill="#ffffff"
                d="m 623.74713,75.73515 122.95795,62.95944 v 75.748 l -123.92615,-0.98376 0.9682,-137.723683 z"
                fill-rule="evenodd"
                id="top-right-fill" />
        <path
                stroke="#082836"
                stroke-width="8"
                stroke-miterlimit="800"
                stroke-linecap="butt"
                d="m 623.74713,75.73515 122.95795,62.95944 v 75.748 l -123.92615,-0.98376 0.9682,-137.723683 z"
                fill-rule="evenodd"
                id="path4" />
        <path
                fill="#ffffff"
                d="M 609.5808,367.88638 486.62288,304.92694 v -75.74802 l 123.92612,0.98376 z"
                fill-rule="evenodd"
                id="bottom-left-fill" />
        <path
                stroke="#082836"
                stroke-width="8"
                stroke-miterlimit="800"
                stroke-linecap="butt"
                d="M 609.5808,367.88638 486.62288,304.92694 v -75.74802 l 123.92612,0.98376 z"
                fill-rule="evenodd"
                id="path6" />
        <path
                fill="#ffffff"
                d="m 609.9362,75.0614 -122.95795,62.95944 v 75.748 L 610.9044,212.78508 609.9362,75.061397 Z"
                fill-rule="evenodd"
                id="top-left-fill" />
        <path
                stroke="#082836"
                stroke-width="8"
                stroke-miterlimit="800"
                stroke-linecap="butt"
                d="m 609.9362,75.0614 -122.95795,62.95944 v 75.748 L 610.9044,212.78508 609.9362,75.061397 Z"
                fill-rule="evenodd"
                id="path8" />
        <path
                fill="#ffffff"
                d="M 623.7471,369.1987 746.70505,306.23926 V 230.49124 L 622.7789,231.475 Z"
                fill-rule="evenodd"
                id="bottom-right-fill" />
        <path
                stroke="#082836"
                stroke-width="8"
                stroke-miterlimit="800"
                stroke-linecap="butt"
                d="M 623.7471,369.1987 746.70505,306.23926 V 230.49124 L 622.7789,231.475 Z"
                fill-rule="evenodd"
                id="path10" />
        <path
                fill="#ffffff"
                d="m 546.14746,222.13005 v 0 c 0,-39.57143 31.57135,-71.65041 70.51654,-71.65041 v 0 c 18.70215,0 36.63831,7.54886 49.86273,20.98592 13.22437,13.43706 20.65381,31.66162 20.65381,50.66449 v 0 c 0,39.57143 -31.57135,71.65038 -70.51654,71.65038 v 0 c -38.94519,0 -70.51654,-32.07895 -70.51654,-71.65038 z"
                fill-rule="evenodd"
                id="path11" />
        <path
                stroke="#000000"
                stroke-width="26.6667"
                stroke-miterlimit="800"
                stroke-linecap="butt"
                d="m 546.14746,222.13005 v 0 c 0,-39.57143 31.57135,-71.65041 70.51654,-71.65041 v 0 c 18.70215,0 36.63831,7.54886 49.86273,20.98592 13.22437,13.43706 20.65381,31.66162 20.65381,50.66449 v 0 c 0,39.57143 -31.57135,71.65038 -70.51654,71.65038 v 0 c -38.94519,0 -70.51654,-32.07895 -70.51654,-71.65038 z"
                fill-rule="evenodd"
                id="path12" />
        <path
                fill="#000000"
                fill-opacity="0"
                d="m 675.69495,222.12874 h 60.44098"
                fill-rule="evenodd"
                id="path13" />
        <path
                stroke="#0e2841"
                stroke-width="12"
                stroke-linejoin="round"
                stroke-linecap="butt"
                d="m 675.69495,222.12874 h 60.44098"
                fill-rule="evenodd"
                id="path14" />
        <path
                fill="#000000"
                fill-opacity="0"
                d="M 556.5884,222.12874 H 496.0215"
                fill-rule="evenodd"
                id="path15" />
        <path
                stroke="#0e2841"
                stroke-width="12"
                stroke-linejoin="round"
                stroke-linecap="butt"
                d="M 556.5884,222.12874 H 496.0215"
                fill-rule="evenodd"
                id="path16" />
        <path
                fill="#000000"
                fill-opacity="0"
                d="m 616.664,281.7463 v 60.44095"
                fill-rule="evenodd"
                id="path17" />
        <path
                stroke="#0e2841"
                stroke-width="12"
                stroke-linejoin="round"
                stroke-linecap="butt"
                d="m 616.664,281.7463 v 60.44095"
                fill-rule="evenodd"
                id="path18" />
        <path
                fill="#000000"
                fill-opacity="0"
                d="M 616.664,162.63976 V 102.07283"
                fill-rule="evenodd"
                id="path19" />
        <path
                stroke="#0e2841"
                stroke-width="12"
                stroke-linejoin="round"
                stroke-linecap="butt"
                d="M 616.664,162.63976 V 102.07283"
                fill-rule="evenodd"
                id="path20" />
    </g>
</svg>
